<svg width="42" height="42" viewBox="0 0 42 42" fill="none" xmlns="http://www.w3.org/2000/svg">
<path d="M36.75 9.1875V11.8125C36.75 12.1606 36.6117 12.4944 36.3656 12.7406C36.1194 12.9867 35.7856 13.125 35.4375 13.125H15.75C15.4019 13.125 15.0681 12.9867 14.8219 12.7406C14.5758 12.4944 14.4375 12.1606 14.4375 11.8125V9.1875C14.4375 8.8394 14.5758 8.50556 14.8219 8.25942C15.0681 8.01328 15.4019 7.875 15.75 7.875H35.4375C35.7856 7.875 36.1194 8.01328 36.3656 8.25942C36.6117 8.50556 36.75 8.8394 36.75 9.1875ZM9.1875 7.875H6.5625C6.2144 7.875 5.88056 8.01328 5.63442 8.25942C5.38828 8.50556 5.25 8.8394 5.25 9.1875V11.8125C5.25 12.1606 5.38828 12.4944 5.63442 12.7406C5.88056 12.9867 6.2144 13.125 6.5625 13.125H9.1875C9.5356 13.125 9.86944 12.9867 10.1156 12.7406C10.3617 12.4944 10.5 12.1606 10.5 11.8125V9.1875C10.5 8.8394 10.3617 8.50556 10.1156 8.25942C9.86944 8.01328 9.5356 7.875 9.1875 7.875ZM35.4375 18.375H15.75C15.4019 18.375 15.0681 18.5133 14.8219 18.7594C14.5758 19.0056 14.4375 19.3394 14.4375 19.6875V22.3125C14.4375 22.6606 14.5758 22.9944 14.8219 23.2406C15.0681 23.4867 15.4019 23.625 15.75 23.625H35.4375C35.7856 23.625 36.1194 23.4867 36.3656 23.2406C36.6117 22.9944 36.75 22.6606 36.75 22.3125V19.6875C36.75 19.3394 36.6117 19.0056 36.3656 18.7594C36.1194 18.5133 35.7856 18.375 35.4375 18.375ZM9.1875 18.375H6.5625C6.2144 18.375 5.88056 18.5133 5.63442 18.7594C5.38828 19.0056 5.25 19.3394 5.25 19.6875V22.3125C5.25 22.6606 5.38828 22.9944 5.63442 23.2406C5.88056 23.4867 6.2144 23.625 6.5625 23.625H9.1875C9.5356 23.625 9.86944 23.4867 10.1156 23.2406C10.3617 22.9944 10.5 22.6606 10.5 22.3125V19.6875C10.5 19.3394 10.3617 19.0056 10.1156 18.7594C9.86944 18.5133 9.5356 18.375 9.1875 18.375ZM35.4375 28.875H15.75C15.4019 28.875 15.0681 29.0133 14.8219 29.2594C14.5758 29.5056 14.4375 29.8394 14.4375 30.1875V32.8125C14.4375 33.1606 14.5758 33.4944 14.8219 33.7406C15.0681 33.9867 15.4019 34.125 15.75 34.125H35.4375C35.7856 34.125 36.1194 33.9867 36.3656 33.7406C36.6117 33.4944 36.75 33.1606 36.75 32.8125V30.1875C36.75 29.8394 36.6117 29.5056 36.3656 29.2594C36.1194 29.0133 35.7856 28.875 35.4375 28.875ZM9.1875 28.875H6.5625C6.2144 28.875 5.88056 29.0133 5.63442 29.2594C5.38828 29.5056 5.25 29.8394 5.25 30.1875V32.8125C5.25 33.1606 5.38828 33.4944 5.63442 33.7406C5.88056 33.9867 6.2144 34.125 6.5625 34.125H9.1875C9.5356 34.125 9.86944 33.9867 10.1156 33.7406C10.3617 33.4944 10.5 33.1606 10.5 32.8125V30.1875C10.5 29.8394 10.3617 29.5056 10.1156 29.2594C9.86944 29.0133 9.5356 28.875 9.1875 28.875Z" fill="black"/>
</svg>
